ply
format ascii 1.0
element vertex 134
property float x
property float y
property float z
property uchar diffuse_red
property uchar diffuse_green
property uchar diffuse_blue
end_header
-0.290511 -0.345745 -1.05704 0 255 0
-0.288911 -0.341989 -1.05294 0 255 0
-0.284868 -0.339464 -1.04882 0 255 0
-0.295358 -0.329929 -1.05432 0 255 0
-0.311072 -0.320354 -1.05836 0 255 0
-0.327032 -0.310162 -1.06203 255 0 255
-0.341673 -0.305156 -1.06603 0 255 0
-0.357621 -0.302877 -1.0705 255 0 255
-0.363066 -0.291687 -1.07337 0 255 0
-0.372818 -0.253888 -1.07136 0 255 0
-0.391481 -0.227307 -1.08371 255 0 255
-0.414993 -0.17038 -1.11112 255 0 255
-0.43424 -0.153125 -1.1304 0 255 0
-0.453721 -0.128564 -1.14714 255 0 255
-0.492648 -0.0807454 -1.13791 255 0 255
-0.540169 -0.0103641 -1.10287 255 0 255
-0.585102 -0.060834 -1.07301 255 0 255
-0.615781 -0.135546 -1.0562 0 255 0
-0.647554 -0.246641 -1.04576 0 255 0
-0.665264 -0.252612 -1.03602 0 255 0
-0.6837 -0.248875 -1.02125 255 0 255
-0.705339 -0.239694 -0.974125 255 0 255
-0.693778 -0.233938 -0.943331 0 255 0
-0.715807 -0.231289 -0.914285 0 255 0
-0.662893 -0.240567 -0.96622 0 255 0
-0.724297 -0.22096 -1.05842 0 255 0
-0.786105 -0.280581 -1.09516 0 255 0
-0.848306 -0.284919 -1.11455 255 0 255
-0.914817 -0.31872 -1.12533 255 0 255
-0.968004 -0.320713 -1.14604 255 0 255
-0.987642 -0.33462 -1.16352 0 255 0
-0.97424 -0.321419 -1.17859 0 255 0
-0.970893 -0.317697 -1.18686 255 0 255
-0.981057 -0.320163 -1.18619 0 255 0
-1.02139 -0.317738 -1.18432 0 255 0
-1.10991 -0.297802 -1.21769 255 0 255
-1.1637 -0.269702 -1.28045 0 255 0
-1.21422 -0.246741 -1.36698 255 0 255
-1.26603 -0.219235 -1.41253 255 0 255
-1.33027 -0.200252 -1.46466 255 0 255
-1.39832 -0.176161 -1.52918 255 0 255
-1.45964 -0.16253 -1.59963 255 0 255
-1.51991 -0.156519 -1.65149 255 0 255
-1.55484 -0.131581 -1.68668 255 0 255
-1.58328 -0.114495 -1.69872 255 0 255
-1.59477 -0.0813913 -1.71378 0 255 0
-1.61226 -0.0184854 -1.76102 0 255 0
-1.59961 0.0207527 -1.77519 0 255 0
-1.60036 0.0494035 -1.80386 0 255 0
-1.63926 0.152115 -1.8631 255 0 255
-1.6561 0.273149 -1.8931 255 0 255
-1.66036 -0.388661 -1.63619 0 255 0
-1.87879 -0.428285 -1.56523 0 255 0
-1.88005 -0.42831 -1.56582 255 0 255
-1.87634 -0.428224 -1.5646 255 0 255
-1.87507 -0.427897 -1.56242 255 0 255
-1.87366 -0.428542 -1.56161 255 0 255
-1.87163 -0.429605 -1.5609 255 0 255
-1.85839 -0.429017 -1.56477 0 255 0
-1.8691 -0.344942 -1.61389 0 255 0
-1.88481 -0.298743 -1.6735 0 255 0
-1.85394 -0.212094 -1.74832 0 255 0
-1.75751 -0.0867084 -1.78694 0 255 0
-1.63006 0.00857211 -1.82065 255 0 255
-1.57464 0.0533128 -1.84049 255 0 255
-1.52032 0.0963469 -1.88309 0 255 0
-1.51258 0.112253 -1.90761 255 0 255
-1.55693 0.136958 -1.93393 255 0 255
-1.58416 0.194616 -1.9599 0 255 0
-1.58302 0.215227 -1.99194 0 255 0
-1.58381 0.244104 -2.02545 255 0 255
-1.50276 0.276411 -2.03349 255 0 255
-1.33393 0.324056 -1.98621 0 255 0
-1.31265 0.352757 -1.96698 255 0 255
-1.30747 0.400868 -1.95169 0 255 0
-1.29871 0.445279 -1.95288 255 0 255
-1.28862 0.480858 -1.97756 255 0 255
-1.28994 0.50797 -2.0006 0 255 0
-1.27948 0.548195 -2.01288 0 255 0
-1.25632 0.579855 -2.01175 255 0 255
-1.24498 0.622295 -2.00605 0 255 0
-1.23596 0.668627 -2.00392 255 0 255
-1.25639 0.692749 -1.98603 255 0 255
-1.26051 0.718099 -1.97169 0 255 0
-1.23358 0.731527 -1.9875 0 255 0
-1.2495 0.749216 -1.99411 0 255 0
-1.22886 0.752862 -2.04534 0 255 0
-1.18981 0.777928 -2.0847 255 0 255
-1.14323 0.820631 -2.09476 255 0 255
-1.10921 0.837636 -2.11305 0 255 0
-1.0986 0.864383 -2.10185 0 255 0
-1.05762 0.982891 -1.98905 255 0 255
-1.05764 0.982926 -1.98905 255 0 255
-1.05215 1.02712 -1.95449 255 0 255
-1.0314 0.979386 -2.00923 0 255 0
-0.993177 0.921912 -2.132 0 255 0
-1.00741 0.911881 -2.13707 0 255 0
-1.01817 0.923137 -2.14589 255 0 255
-1.03124 0.939966 -2.15702 255 0 255
-1.01683 0.982397 -2.15118 255 0 255
-0.978282 1.03359 -2.14095 255 0 255
-0.944 1.06203 -2.10947 0 255 0
-0.927163 1.11646 -2.09915 0 255 0
-0.907815 1.13156 -2.06413 255 0 255
-0.876915 1.16529 -2.03126 0 255 0
-0.857531 1.22014 -1.96529 255 0 255
-0.81766 1.2983 -1.87044 0 255 0
-0.80943 1.31848 -1.83144 255 0 255
-0.787994 1.2993 -1.84638 255 0 255
-0.770996 1.23054 -1.91267 255 0 255
-0.739978 1.21925 -1.92116 255 0 255
-0.794137 1.13284 -1.98466 0 255 0
-0.80654 1.11737 -1.97351 255 0 255
-0.834198 1.11633 -1.94777 255 0 255
-0.837442 1.11548 -1.89707 255 0 255
-0.826352 1.13304 -1.88785 0 255 0
-0.776951 1.14941 -1.88636 255 0 255
-0.734118 1.18508 -1.89883 255 0 255
-0.742856 1.19449 -1.90555 255 0 255
-0.767272 1.22502 -1.91638 255 0 255
-0.833215 1.23656 -1.91213 255 0 255
-0.834099 1.27481 -1.90363 255 0 255
-0.814638 1.31222 -1.93408 255 0 255
-0.753515 1.45006 -1.88299 255 0 255
-0.674829 1.47027 -1.8658 255 0 255
-0.617906 1.47798 -1.82732 0 255 0
-0.598565 1.53192 -1.77182 0 255 0
-0.525123 1.56624 -1.75557 255 0 255
-0.484227 1.53912 -1.74281 0 255 0
-0.458022 1.50625 -1.73275 255 0 255
-0.859155 0.0211854 -1.84465 255 0 255
-0.86692 -0.0298654 -1.81781 0 255 0
-0.822674 -0.0804385 -1.77444 255 0 255
-0.778242 -0.12857 -1.71673 255 0 255
